<svg width="605" height="605" xmlns="http://www.w3.org/2000/svg" xmlns:xlink="http://www.w3.org/1999/xlink" overflow="hidden"><defs><clipPath id="clip0"><rect x="0" y="0" width="605" height="605"/></clipPath></defs><g clip-path="url(#clip0)"><path d="M276.598 600.652C275.889 599.943 275.842 594.176 276.551 589.072 277.071 585.527 277.307 584.959 279.151 582.785 283.31 577.917 286.335 571.678 288.273 563.784 289.407 559.247 290.684 550.266 290.353 549.368 290.211 549.038 289.549 548.612 288.84 548.47 283.925 547.383 273.904 544.169 271.588 542.94 265.775 539.868 261.757 534.432 260.15 527.626 259.016 522.805 259.488 513.21 261.143 506.688 263.175 498.936 266.295 491.279 268.752 488.018 270.265 485.985 271.588 482.346 272.581 477.525 273.763 471.711 273.715 453.986 272.534 444.061 270.69 428.888 273.195 413.811 279.434 402.798 281.845 398.544 287.375 392.777 291.298 390.461 300.798 384.884 314.269 383.844 328.732 387.578 337.193 389.752 338.847 390.603 344.283 395.188 358.463 407.193 367.301 422.177 370.421 439.334 371.508 445.148 371.461 458.051 370.373 464.385 367.207 483.007 359.455 500.59 347.213 516.85 339.225 527.39 330.245 535.85 321.217 541.239L316.491 544.027 314.931 548.848C311.575 559.152 303.918 572.387 294.654 583.967 289.455 590.395 279.009 601.219 277.969 601.219 277.496 601.219 276.929 600.982 276.598 600.652Z" fill="#D15923" transform="matrix(1 0 0 -1 0 605)"/><path d="M156.733 557.64C156.024 555.607 154.086 546.107 153.188 540.01 150.541 522.427 150.399 505.6 152.715 493.642L153.755 488.396 150.588 482.062C142.979 466.654 138.961 447.511 138.961 426.336 138.961 403.129 143.735 384.222 153.188 370.232 156.166 365.836 162.168 359.502 166.375 356.336 175.025 349.813 187.692 345.512 200.595 344.755 205.086 344.472 205.653 344.519 209.718 345.89 226.308 351.467 239.779 362.007 245.923 374.202 249.61 381.434 250.933 391.879 249.326 401.332 247.719 411.164 243.371 422.035 238.502 428.652 229.049 441.461 223.094 452.379 220.636 461.265 219.88 464.007 219.643 466.464 219.549 472.845 219.171 499.125 208.489 516.424 193.553 515.054 190.197 514.723 185.659 513.305 178.428 510.28 175.592 509.098 173.181 508.105 173.087 508.105 172.661 508.105 169.447 515.81 168.077 520.064 165.382 528.382 164.768 534.149 165.43 544.736 165.666 547.761 165.524 548.376 163.87 552.11 161.885 556.6 159.663 559.625 158.34 559.625 157.725 559.625 157.253 559.011 156.733 557.64Z" fill="#D15923" transform="matrix(1 0 0 -1 0 605)"/><path d="M470.955 483.811C469.82 482.062 468.922 478.092 468.591 473.602 468.308 469.726 468.355 469.348 469.962 465.33 472.656 458.571 473.271 454.459 473.034 445.148 472.798 435.458 472.845 435.505 468.402 436.593 463.581 437.68 458.051 437.254 454.223 435.505 444.77 431.063 437.349 418.206 433.709 399.867 431.961 391.123 426.761 376.471 415.985 350.096 408.375 331.474 407.193 326.842 407.241 315.734 407.288 307.274 408.091 303.445 411.164 297.064 416.977 284.964 429.786 275.322 446.896 270.123 452.048 268.563 452.947 268.421 456.586 268.611 464.148 269.036 474.263 271.825 481.495 275.464 492.839 281.23 502.103 290.92 507.822 303.02 513.305 314.553 515.952 326.889 516.471 343.148 517.322 369.523 510.516 396.464 498.558 414.378L495.013 419.719 494.729 424.54C493.926 437.774 487.876 456.539 478.47 475.161 473.46 485.134 472.514 486.174 470.955 483.811Z" fill="#D15923" transform="matrix(1 0 0 -1 0 605)"/><path d="M47.8328 329.347C47.0293 328.543 47.1238 315.498 47.9746 305.383 49.5344 287.753 52.7957 273.763 57.9004 262.466 59.3656 259.346 59.5547 258.401 59.5547 255.14 59.5547 239.164 66.0301 215.437 74.9633 198.657 80.1625 188.921 87.7723 178.617 93.9168 172.945 101.763 165.761 109.278 161.554 118.637 158.954 123.08 157.773 135.369 157.773 140.615 159.002 149.501 161.034 162.168 166.895 165.855 170.629 175.545 180.46 184.005 195.727 186.983 208.678 188.259 214.113 188.117 223.897 186.746 229.002 185.518 233.681 182.634 239.779 179.751 243.843 176.821 247.955 170.345 254.336 165.477 257.834 140.757 275.7 130.311 284.114 121 293.567 110.318 304.438 104.599 308.503 97.2254 310.393 92.5461 311.575 86.9688 311.055 82.9039 309.07 79.0754 307.179 74.4434 302.784 70.6148 297.301 69.1496 295.221 67.7316 293.52 67.4008 293.52 66.4555 293.52 62.816 300.326 61.1617 305.241 60.1691 308.077 59.3656 311.67 59.082 314.553 58.7512 317.105 58.3258 319.657 58.0422 320.225 57.0496 322.021 53.5047 326.416 51.5668 328.165 49.4871 330.009 48.7309 330.245 47.8328 329.347Z" fill="#D15923" transform="matrix(1 0 0 -1 0 605)"/><path d="M330.718 279.813C322.824 279.056 313.702 276.74 304.863 273.195 302.405 272.203 299.097 271.116 297.537 270.832 288.698 269.083 275.18 263.317 266.814 257.692 261.143 253.864 253.391 246.538 249.279 241.055 245.829 236.517 241.196 227.537 239.4 221.959 236.564 213.026 236.139 209.67 236.092 196.389 236.092 185.707 236.234 183.343 237.179 178.239 238.455 171.102 238.455 170.345 237.226 164.343 233.398 145.342 223.897 129.461 210.048 119.062 205.086 115.328 203.573 113.627 201.21 108.947 194.073 94.7203 195.396 76.9957 205.133 55.2535 211.136 41.8773 214.161 37.0563 220.4 30.4391 230.609 19.6625 243.04 12.9508 258.023 10.1621 262.939 9.26406 266.342 9.26406 275.842 10.1621 297.443 12.2418 319.516 16.4012 339.84 22.3094 347.828 24.6254 370.279 31.857 376.754 34.2203 398.733 42.2082 424.871 55.1117 445.479 68.2043 461.407 78.2719 474.358 97.6981 478.801 118.07 480.833 127.381 481.022 133.195 479.746 148.887 478.092 169.022 472.987 182.445 463.581 191.237 458.382 196.105 452.568 198.799 448.551 198.279 445.668 197.901 437.538 198.752 432.906 199.934 423.831 202.25 414.236 207.827 406.626 215.2 401.096 220.541 397.74 224.937 397.031 227.773 396.748 228.955 395.566 232.311 394.432 235.146 384.648 260.197 369.617 274.85 349.435 278.82 343.81 279.907 336.342 280.332 330.718 279.813Z" fill="#D15923" transform="matrix(1 0 0 -1 0 605)"/></g></svg>